<svg width="16" height="10" viewBox="0 0 16 10" fill="none" xmlns="http://www.w3.org/2000/svg">
<path d="M4.65404 0C5.11561 0 5.54252 0.0357142 5.93258 0.141428C6.28654 0.205746 6.6244 0.337735 6.92724 0.529999C7.21185 0.706427 7.42494 0.954284 7.56652 1.27214C7.70882 1.59 7.77961 1.97928 7.77961 2.40285C7.77961 2.89785 7.67342 3.32142 7.42494 3.63928C7.21185 3.95785 6.85645 4.23999 6.43027 4.45213C7.03415 4.62928 7.49573 4.94713 7.77961 5.3707C8.06421 5.79499 8.2419 6.32499 8.2419 6.9257C8.2419 7.4207 8.135 7.84427 7.9573 8.19784C7.77961 8.55141 7.49573 8.86927 7.17573 9.08141C6.82813 9.30881 6.44388 9.47596 6.03949 9.5757C5.61331 9.68212 5.18713 9.75284 4.76095 9.75284H0V0H4.65404ZM4.36944 3.95714C4.76022 3.95714 5.08022 3.85142 5.3287 3.67499C5.57719 3.49856 5.6841 3.17999 5.6841 2.79142C5.6841 2.57928 5.64798 2.36714 5.57719 2.22642C5.5064 2.085 5.39949 1.97857 5.25792 1.87285C5.11561 1.80214 4.97331 1.73143 4.79562 1.69643C4.61792 1.66071 4.44095 1.66071 4.22714 1.66071H2.16702V3.95785H4.37016L4.36944 3.95714ZM4.47634 8.12713C4.68943 8.12713 4.90252 8.09141 5.08022 8.05641C5.25963 8.02268 5.42931 7.95024 5.57719 7.84427C5.72194 7.74087 5.84303 7.60847 5.93258 7.4557C6.00337 7.27927 6.07488 7.06713 6.07488 6.81999C6.07488 6.32499 5.93258 5.97142 5.6487 5.72427C5.3641 5.51213 4.97331 5.40642 4.51174 5.40642H2.16702V8.12784H4.47634V8.12713ZM11.3328 8.09141C11.6167 8.37427 12.0429 8.5157 12.6113 8.5157C13.0021 8.5157 13.3575 8.40998 13.6414 8.23356C13.926 8.02141 14.1037 7.80927 14.1745 7.59713H15.9153C15.6307 8.44498 15.2045 9.0457 14.6368 9.43427C14.0676 9.78784 13.3929 9.99998 12.5759 9.99998C12.0532 10.0015 11.5349 9.90558 11.0482 9.71712C10.6102 9.55466 10.2197 9.2877 9.91123 8.93998C9.58134 8.61468 9.33748 8.21409 9.20117 7.77356C9.02348 7.31427 8.95196 6.81999 8.95196 6.25427C8.95196 5.72428 9.02348 5.22999 9.20117 4.76999C9.37202 4.3272 9.62482 3.91977 9.94663 3.56856C10.2666 3.25071 10.6574 2.96857 11.0836 2.79142C11.558 2.6029 12.0647 2.50685 12.5759 2.50857C13.1798 2.50857 13.7129 2.615 14.1745 2.86214C14.6368 3.10928 14.9915 3.39214 15.2761 3.81642C15.5664 4.22394 15.7827 4.67835 15.9153 5.15928C15.9861 5.65356 16.0215 6.14856 15.9861 6.71356H10.8351C10.8351 7.27927 11.0482 7.80927 11.3328 8.09213V8.09141ZM13.5706 4.38142C13.3221 4.13428 12.9313 3.99285 12.469 3.99285C12.1498 3.99285 11.9006 4.06356 11.6875 4.16928C11.4744 4.27571 11.3328 4.41713 11.1905 4.55856C11.0597 4.69517 10.9732 4.86729 10.942 5.05285C10.9059 5.22999 10.8705 5.3707 10.8705 5.51213H14.0676C13.9968 4.98213 13.8191 4.62928 13.5706 4.38142ZM10.4443 0.671427H14.423V1.62571H10.445V0.671427H10.4443Z" fill="#E21A43"/>
</svg>
