<svg width="16" height="15" viewBox="0 0 16 15" fill="none" xmlns="http://www.w3.org/2000/svg">
<path d="M3.35782 1.66741C3.3576 2.10941 3.1805 2.53322 2.86548 2.84561C2.55047 3.158 2.12334 3.33337 1.67807 3.33315C1.2328 3.33293 0.805847 3.15713 0.491147 2.84443C0.176448 2.53173 -0.000222427 2.10774 2.10167e-07 1.66574C0.000222847 1.22374 0.177321 0.799926 0.492335 0.487539C0.807349 0.175152 1.23447 -0.000220793 1.67975 2.08623e-07C2.12502 0.00022121 2.55197 0.176018 2.86667 0.488718C3.18137 0.801417 3.35804 1.2254 3.35782 1.66741ZM3.40819 4.56725H0.0503674V15H3.40819V4.56725ZM8.71354 4.56725H5.37251V15H8.67996V9.5253C8.67996 6.47547 12.6842 6.19216 12.6842 9.5253V15H16V8.39203C16 3.25065 10.0735 3.44231 8.67996 5.96717L8.71354 4.56725Z" fill="#666666"/>
</svg>
