<svg width="34" height="24" viewBox="0 0 34 24" fill="none" xmlns="http://www.w3.org/2000/svg">
<rect x="0.5" y="0.5" width="33" height="23" rx="3.5" fill="white" stroke="#D9D9D9"/>
<path fill-rule="evenodd" clip-rule="evenodd" d="M4 14.4064C4.01731 14.3133 4.03317 14.2232 4.04871 14.1349C4.07273 13.9984 4.096 13.8661 4.12276 13.7339C4.23608 13.1356 4.35018 12.5381 4.46429 11.9405L4.4643 11.9405C4.5784 11.343 4.6925 10.7455 4.80581 10.1472C4.82155 10.0715 4.84358 10.0209 4.91913 10.0083C5.50775 9.91991 6.09952 9.85677 6.68814 10.0052C7.20121 10.1314 7.56005 10.4945 7.61986 10.9208C7.74262 11.7701 7.24843 12.4489 6.51501 12.692C6.12785 12.8183 5.73438 12.8498 5.33463 12.812C5.24019 12.8025 5.21187 12.8277 5.19613 12.9193C5.11114 13.3834 5.023 13.8444 4.93172 14.3053C4.92542 14.3432 4.8908 14.4032 4.86877 14.4032C4.65484 14.4079 4.44443 14.4074 4.22572 14.4068C4.15159 14.4066 4.0765 14.4064 4 14.4064ZM5.35351 12.0605C5.41505 12.0605 5.47465 12.0621 5.53272 12.0637C5.65585 12.0671 5.77211 12.0702 5.88547 12.0574C6.21284 12.0226 6.47409 11.8742 6.62204 11.5617C6.78886 11.2081 6.66925 10.8324 6.35448 10.7219C6.131 10.6429 5.90121 10.6587 5.67143 10.6903C5.6431 10.6934 5.60533 10.7376 5.59903 10.7661C5.55504 10.9973 5.51104 11.2295 5.46539 11.4705L5.46535 11.4707L5.46527 11.4711L5.35351 12.0605ZM9.58088 13.8002C9.53107 13.8521 9.48442 13.9044 9.43882 13.9555C9.34034 14.0658 9.24679 14.1706 9.13705 14.2548C8.80655 14.5106 8.42882 14.5674 8.04795 14.3906C7.67023 14.2169 7.51599 13.8791 7.50025 13.4813C7.46562 12.6446 7.75836 11.9532 8.4603 11.4733C8.90098 11.1702 9.40776 11.0786 9.93342 11.107C10.1073 11.1173 10.2799 11.1476 10.4528 11.1779L10.4528 11.1779C10.546 11.1942 10.6393 11.2106 10.7329 11.2239C10.84 11.2396 10.8557 11.2996 10.8368 11.3912C10.8116 11.5232 10.786 11.6551 10.7605 11.787C10.6651 12.2792 10.57 12.7703 10.4906 13.2634C10.445 13.5457 10.4268 13.8349 10.4088 14.1211L10.3993 14.2706C10.393 14.3716 10.3678 14.4127 10.2639 14.4095C10.0688 14.4032 9.87362 14.4032 9.67846 14.4095C9.57773 14.4127 9.54311 14.3748 9.55255 14.2769C9.56154 14.1688 9.56732 14.0574 9.57332 13.9417V13.9417V13.9417L9.57332 13.9416L9.57333 13.9415L9.57334 13.9414L9.57334 13.9413L9.57334 13.9413L9.57335 13.9412C9.57575 13.8949 9.57819 13.8479 9.58088 13.8002ZM9.80122 11.849C9.4959 11.7637 9.24093 11.8237 9.02689 12.0037C8.62398 12.3447 8.44142 12.7867 8.47604 13.3139C8.48549 13.4749 8.54844 13.6297 8.71841 13.6991C8.88839 13.7686 9.04263 13.7181 9.17483 13.6044C9.25352 13.5349 9.32907 13.456 9.38573 13.3676C9.60775 13.0277 9.6684 12.6443 9.73 12.2548L9.73 12.2548C9.75137 12.1197 9.77285 11.9839 9.80122 11.849ZM14.2615 13.617C14.4346 14.1727 14.9099 14.4821 15.7441 14.4821C16.317 14.4663 16.8867 14.1411 17.2424 13.4718C17.4312 13.1119 17.5005 12.7267 17.4753 12.3226C17.4533 11.9342 17.299 11.6059 16.9843 11.3722C16.6538 11.126 16.276 11.0755 15.8731 11.1197C14.5259 11.2712 13.9751 12.7014 14.2615 13.617ZM15.1579 13.1534C15.1583 13.1372 15.1586 13.1212 15.1586 13.1056C15.1681 12.7425 15.2562 12.4047 15.4734 12.1047C15.571 11.9721 15.6937 11.8711 15.8574 11.8332C16.1911 11.7574 16.4649 11.95 16.4964 12.3131C16.5342 12.7583 16.4271 13.1687 16.147 13.5255C16.04 13.6581 15.9046 13.7496 15.7315 13.7654C15.4199 13.7938 15.1838 13.5823 15.1586 13.2508C15.1565 13.2191 15.1572 13.186 15.1579 13.1534V13.1534V13.1534V13.1534V13.1534ZM18.2245 11.186H19.024C19.0114 11.3565 18.9988 11.5206 18.9831 11.688C19.0122 11.6608 19.0403 11.634 19.0678 11.6077L19.0679 11.6076L19.0681 11.6075L19.0681 11.6074L19.0681 11.6074L19.0681 11.6074C19.127 11.5512 19.1834 11.4974 19.2412 11.448C19.5528 11.1765 19.9085 11.0565 20.3209 11.1228C20.6608 11.1797 20.8969 11.4291 20.9347 11.7795C20.9757 12.1442 20.9075 12.4979 20.8395 12.8509L20.8395 12.8509L20.8245 12.9288C20.797 13.0716 20.7698 13.2145 20.7426 13.3573L20.7422 13.3592C20.6825 13.6733 20.6227 13.9869 20.5601 14.299C20.5506 14.3401 20.5034 14.4 20.4719 14.4032C20.2012 14.4095 19.9305 14.4064 19.6598 14.4032C19.6508 14.4032 19.6417 14.3983 19.6279 14.3908L19.6279 14.3908L19.6278 14.3907C19.6225 14.3879 19.6165 14.3846 19.6095 14.3811C19.6598 14.1191 19.7102 13.8538 19.7574 13.5886C19.8298 13.1814 19.8991 12.7772 19.962 12.3699C19.9746 12.3005 19.9683 12.2279 19.9589 12.1584C19.9337 11.9153 19.7543 11.8048 19.5213 11.8774C19.2947 11.95 19.1594 12.1268 19.0492 12.3226C18.8855 12.6099 18.8288 12.9288 18.7722 13.2477L18.7299 13.4843L18.7299 13.4844C18.6818 13.755 18.6338 14.0245 18.5802 14.2959C18.5707 14.3369 18.5235 14.4 18.492 14.4032C18.2713 14.4108 18.0486 14.4103 17.8112 14.4098H17.8111H17.8111H17.8111L17.6264 14.4095C17.8342 13.3234 18.0293 12.2594 18.2245 11.186ZM22.7634 13.7465C22.4298 13.7055 22.2063 13.4718 22.2283 13.1435C22.2979 13.1435 22.3672 13.1445 22.4361 13.1456C22.5728 13.1477 22.7082 13.1498 22.8421 13.1435C23.1664 13.1245 23.4843 13.0708 23.7802 12.9225C24.1579 12.733 24.3341 12.4205 24.3058 12.0132C24.2775 11.5996 24.054 11.2996 23.6542 11.1797C23.0562 10.9997 22.5053 11.126 22.0363 11.527C21.4666 12.0132 21.2526 12.6572 21.3344 13.3929C21.391 13.9138 21.6743 14.2864 22.1906 14.419C22.7446 14.5611 23.2891 14.4853 23.8148 14.2706C23.8526 14.2548 23.8966 14.1948 23.8935 14.1569C23.8859 14.0029 23.8703 13.8488 23.8547 13.6947L23.8431 13.5792C23.8328 13.5792 23.8251 13.5786 23.8192 13.5782C23.8107 13.5776 23.8059 13.5773 23.8022 13.5792C23.7676 13.5918 23.7329 13.6044 23.7015 13.617C23.3993 13.7339 23.0877 13.7844 22.7634 13.7465ZM23.2513 12.3478C23.0593 12.4488 22.562 12.5088 22.3196 12.4583C22.37 12.0384 22.8138 11.7101 23.1884 11.8016C23.3143 11.8332 23.4056 11.8995 23.4276 12.0352C23.4496 12.1679 23.3835 12.2784 23.2513 12.3478ZM25.3729 13.1561C25.3446 13.4655 25.5649 13.7023 25.9017 13.7465C26.2165 13.7844 26.5187 13.7371 26.8146 13.6297C26.8418 13.6195 26.8682 13.6092 26.8971 13.5979C26.9216 13.5884 26.9479 13.5781 26.9782 13.5666C26.9844 13.6333 26.9912 13.6988 26.9979 13.7633L26.9979 13.7636V13.7636C27.0119 13.8973 27.0254 14.0271 27.0317 14.157C27.0349 14.1949 26.9908 14.2548 26.9562 14.2706C26.4211 14.4916 25.8702 14.5674 25.3068 14.4127C24.8 14.2738 24.5356 13.9044 24.4727 13.3992C24.394 12.752 24.5608 12.1679 25.0109 11.688C25.4957 11.1734 26.0906 10.9902 26.7768 11.1797C27.1954 11.2965 27.4189 11.5996 27.4441 12.0258C27.4693 12.4426 27.2804 12.7551 26.887 12.9383C26.4903 13.1214 26.0686 13.1498 25.6405 13.1593C25.5555 13.1561 25.4673 13.1561 25.3729 13.1561ZM25.6331 12.4744L25.6331 12.4744C25.7728 12.4674 25.9073 12.4607 26.0402 12.4426C26.1661 12.4268 26.292 12.3889 26.4054 12.3352C26.5281 12.2816 26.5879 12.1679 26.569 12.029C26.5502 11.8964 26.462 11.8332 26.3393 11.8017C25.9678 11.7006 25.5051 12.0416 25.4642 12.4836C25.5214 12.48 25.5777 12.4772 25.6331 12.4744ZM27.6172 13.7465C27.5763 13.9612 27.5385 14.1727 27.4976 14.4064C27.5606 14.4064 27.6228 14.4065 27.6842 14.4066C27.9264 14.4071 28.1574 14.4076 28.3884 14.4C28.4104 14.4 28.445 14.3401 28.4513 14.3022C28.4834 14.1445 28.5132 13.986 28.543 13.8276C28.5978 13.5356 28.6527 13.2437 28.722 12.9572C28.8763 12.3194 29.1375 12.0984 29.7576 12.0163C29.7828 12.0132 29.8237 11.9848 29.83 11.9627C29.8695 11.7812 29.9049 11.5984 29.9416 11.4087C29.9605 11.3112 29.9797 11.212 30 11.1102C29.4019 11.0471 29.0683 11.3943 28.7787 11.8206L28.7833 11.7589C28.7976 11.5704 28.812 11.3786 28.8291 11.1765C28.7636 11.1765 28.6994 11.1763 28.6361 11.1761C28.4496 11.1755 28.2711 11.1749 28.0925 11.1797C28.0673 11.1828 28.0201 11.2396 28.0169 11.2744C27.9498 12.0858 27.7908 12.8795 27.632 13.6726L27.6172 13.7465Z" fill="black"/>
<path fill-rule="evenodd" clip-rule="evenodd" d="M19.2833 7.377C19.2514 7.36857 19.2195 7.36013 19.1877 7.35303C19.0901 7.35303 18.9925 7.35303 18.8886 7.35618C18.8532 7.3633 18.8177 7.37106 18.7819 7.37888C18.7383 7.38841 18.6943 7.39803 18.6494 7.4067C18.1678 7.49826 17.7145 7.66559 17.277 7.8866C16.3295 8.3665 15.4797 8.98848 14.7179 9.72412C14.2111 10.2103 13.7201 10.7187 13.2448 11.2396C12.4107 12.1552 11.6961 13.1624 11.1264 14.2674C10.8337 14.8389 10.5693 15.423 10.4496 16.0576C10.4276 16.1744 10.4654 16.3101 10.5032 16.427C10.5189 16.4743 10.607 16.509 10.6668 16.528C10.6826 16.5343 10.7298 16.4554 10.7518 16.4112C10.7596 16.394 10.7677 16.3765 10.7758 16.3586C10.9125 16.0591 11.0974 15.6541 11.2578 15.386C11.5977 14.8177 11.8661 14.3779 12.247 13.838C12.8576 12.9698 13.5711 12.1179 14.3203 11.3665C15.0285 10.6561 15.7378 10.0209 16.6286 9.541C17.0378 9.32315 17.4564 9.10846 17.8845 8.93165C18.6242 8.6254 19.3954 8.41702 20.1886 8.3002C20.2736 8.28757 20.3869 8.22127 20.4153 8.15181C20.4404 8.08867 20.3806 7.96869 20.3208 7.9087C20.0785 7.65928 19.7952 7.46985 19.4426 7.41302C19.3895 7.40512 19.3364 7.39106 19.2833 7.377ZM12.077 11.6848C12.2281 11.2743 12.3036 10.8481 12.3131 10.4061C12.3089 10.3587 12.3054 10.3114 12.3019 10.264C12.2949 10.1693 12.2879 10.0746 12.2753 9.97986C12.1903 9.24737 11.8756 8.6254 11.3751 8.09182C11.3153 8.03183 11.2334 7.98448 11.1516 7.95606C11.0697 7.92449 11.0162 7.97185 11.0225 8.06656C11.0227 8.06856 11.0228 8.07057 11.023 8.07257C11.0291 8.1528 11.0355 8.2359 11.0509 8.31599C11.073 8.44215 11.0949 8.56847 11.1169 8.69487C11.195 9.14417 11.2734 9.59455 11.3593 10.043C11.4443 10.4945 11.5388 10.9428 11.6395 11.388C11.6741 11.5301 11.7308 11.6721 11.8 11.8047C11.8535 11.9058 11.9291 11.8963 11.9983 11.8047C12.0298 11.7669 12.0613 11.729 12.077 11.6848Z" fill="#FC461E"/>
</svg>
