<svg width="16" height="16" viewBox="0 0 16 16" fill="none" xmlns="http://www.w3.org/2000/svg">
<path d="M14.3912 7.6576C14.3256 6.39833 13.8876 5.18688 13.1328 4.1768C12.9028 4.4245 12.657 4.65699 12.3968 4.8728C11.5975 5.53668 10.7044 6.07855 9.7464 6.4808C9.88 6.7608 10.0024 7.032 10.1104 7.288V7.2904C10.1409 7.36193 10.1702 7.43394 10.1984 7.5064C11.4096 7.3704 12.6864 7.42 13.924 7.5872C14.0888 7.6096 14.244 7.6336 14.3912 7.6576ZM6.8832 1.6976C7.66283 2.79614 8.38177 3.93651 9.0368 5.1136C10.0152 4.728 10.824 4.2416 11.4752 3.7C11.7012 3.51371 11.914 3.31188 12.112 3.096C10.9608 2.12777 9.50425 1.59787 8 1.6C7.62563 1.59974 7.25195 1.63213 6.8832 1.6968V1.6976ZM1.8024 6.3976C2.34738 6.38385 2.89171 6.35103 3.4344 6.2992C4.74611 6.18187 6.04662 5.962 7.324 5.6416C6.65641 4.48177 5.93564 3.35337 5.164 2.26C4.33977 2.66832 3.61301 3.24913 3.033 3.96303C2.45298 4.67693 2.0333 5.50723 1.8024 6.3976ZM3.0264 12.028C3.3368 11.5744 3.7448 11.064 4.2864 10.5088C5.4496 9.3168 6.8224 8.3888 8.4112 7.8768L8.4608 7.8624C8.3288 7.5712 8.2048 7.3112 8.08 7.0664C6.6112 7.4944 5.064 7.7616 3.5224 7.9C2.7704 7.968 2.096 7.9976 1.6 8.0024C1.59858 9.46847 2.10264 10.8902 3.0272 12.028H3.0264ZM10.404 13.932C10.0955 12.3762 9.6588 10.8486 9.0984 9.3648C7.4968 9.9464 6.2208 10.7968 5.2344 11.8112C4.83632 12.2131 4.48305 12.657 4.1808 13.1352C5.28385 13.9582 6.62374 14.402 8 14.4C8.82393 14.4012 9.64029 14.2428 10.404 13.9336V13.932ZM11.9024 13.072C13.1514 12.1118 14.0023 10.7246 14.292 9.176C14.02 9.108 13.6752 9.04 13.296 8.9872C12.4529 8.86579 11.5974 8.85692 10.752 8.9608C11.228 10.3039 11.6124 11.6777 11.9024 13.0728V13.072ZM8 16C3.5816 16 0 12.4184 0 8C0 3.5816 3.5816 0 8 0C12.4184 0 16 3.5816 16 8C16 12.4184 12.4184 16 8 16Z" fill="#666666"/>
</svg>
